<svg xmlns="http://www.w3.org/2000/svg" viewBox="0 0 120 140" width="120" height="140" role="img" aria-label="Many Hands Market printer's colophon: a bound sheaf of wheat with a heart at its tie"><rect width="120" height="140" fill="#3D4D34"/><g fill="none" stroke="#FBF6EB" stroke-linecap="round" stroke-linejoin="round"><g stroke-width="2.1" opacity="0.92"><path d="M60 98 C58.5 74 56 50 53 30"/><path d="M60 98 C61.5 74 64 50 67 30"/></g><g stroke-width="1.9" opacity="0.85"><path d="M60 97 C56 73 51 50 44.5 33"/><path d="M60 97 C64 73 69 50 75.5 33"/></g></g><g stroke="#FBF6EB" stroke-width="1.9" stroke-linecap="round" stroke-linejoin="round" fill="#3D4D34"><path d="M53 30 c-4.6-0.6-7.8-3.4-9-8 4.6-0.6 8.4 0.4 11 3.8 z"/><path d="M53 25.5 c-4.8-1.6-7.6-4.8-8-9.8 4.8 0.4 8.4 2.4 10.4 6.2 z"/><path d="M53.5 21 c-4.4-2.8-6.4-6.6-5.6-11.6 4.6 1.6 7.6 4.6 8.6 9 z"/><path d="M67 30 c4.6-0.6 7.8-3.4 9-8 -4.6-0.6-8.4 0.4-11 3.8 z"/><path d="M67 25.5 c4.8-1.6 7.6-4.8 8-9.8 -4.8 0.4-8.4 2.4-10.4 6.2 z"/><path d="M66.5 21 c4.4-2.8 6.4-6.6 5.6-11.6 -4.6 1.6-7.6 4.6-8.6 9 z"/><path d="M60 32 c-2.6-3.6-3-8-1.1-12.6 2.2 1.4 3.6 3.4 4.2 6 0.6-2.6 2-4.6 4.2-6 1.9 4.6 1.5 9-1.1 12.6 z"/><path d="M60 19.5 c-2.4-3.4-2.6-7.4-0.6-11.6 3.6 2.2 5.4 5.6 5.2 10 -1.6 0.4-3.1 0.9-4.6 1.6 z"/></g><g fill="#C0573B" stroke="none"><circle cx="60" cy="8.4" r="2.3"/><circle cx="48.6" cy="9.6" r="2.1"/><circle cx="71.4" cy="9.6" r="2.1"/><circle cx="45.4" cy="16.4" r="1.9"/><circle cx="74.6" cy="16.4" r="1.9"/><circle cx="43.4" cy="23" r="1.7"/><circle cx="76.6" cy="23" r="1.7"/><circle cx="42" cy="29.4" r="1.5"/><circle cx="78" cy="29.4" r="1.5"/></g><g fill="none" stroke="#FBF6EB" stroke-linecap="round" stroke-linejoin="round"><path d="M52 100 C49 110 45.5 119 40 126" stroke-width="2.1"/><path d="M68 100 C71 110 74.5 119 80 126" stroke-width="2.1"/><path d="M57 101 C56 111 54 121 50.5 129" stroke-width="1.9" opacity="0.82"/><path d="M63 101 C64 111 66 121 69.5 129" stroke-width="1.9" opacity="0.82"/></g><g fill="none" stroke="#FBF6EB" stroke-linecap="round" stroke-linejoin="round"><path d="M41 95.5 C50 89.5 70 89.5 79 95.5" stroke-width="2.4"/><path d="M41.5 104.5 C50.5 110.5 69.5 110.5 78.5 104.5" stroke-width="2.4"/><path d="M43 100 C51 97.5 69 97.5 77 100" stroke-width="1.6" opacity="0.5"/></g><g transform="translate(60 100) scale(0.42) translate(-32 -31)"><path d="M 32,52 C 32,52 12,38 12,24 C 12,16 19,11 25,11 C 28,11 31,13 32,16 C 33,13 36,11 39,11 C 45,11 52,16 52,24 C 52,38 32,52 32,52 Z" fill="#E8B8B0" stroke="#3D4D34" stroke-width="3.2" stroke-linejoin="round" stroke-linecap="round"/></g><rect width="120" height="140" fill="url(#colophonGrain)" opacity="0.5" style="mix-blend-mode:multiply"/><defs><filter id="colophonGrainFilter"><feTurbulence type="fractalNoise" baseFrequency="0.85" numOctaves="2" stitchTiles="stitch"/><feColorMatrix values="0 0 0 0 0.18 0 0 0 0 0.14 0 0 0 0 0.10 0 0 0 0.08 0"/></filter><pattern id="colophonGrain" width="120" height="140" patternUnits="userSpaceOnUse"><rect width="120" height="140" filter="url(#colophonGrainFilter)"/></pattern></defs></svg>