<svg xmlns="http://www.w3.org/2000/svg" viewBox="0 0 220 220" role="img" aria-label="Carved date-mark seal: The August Gathering, Lammas, First Harvest — Edition No. 02, August 2026">
<defs>
<filter id="dm-grain"><feTurbulence type="fractalNoise" baseFrequency="0.85" numOctaves="2" stitchTiles="stitch" result="n"/><feColorMatrix in="n" type="matrix" values="0 0 0 0 0  0 0 0 0 0  0 0 0 0 0  0 0 0 0.5 0"/></filter>
<filter id="dm-ink" x="-20%" y="-20%" width="140%" height="140%"><feTurbulence type="fractalNoise" baseFrequency="0.018 0.022" numOctaves="2" seed="7" result="w"/><feDisplacementMap in="SourceGraphic" in2="w" scale="1.7"/></filter>
<path id="dm-rim" fill="none" d="M 110,29 A 81,81 0 1 1 109.99,29"/>
</defs>
<g>
<animateTransform attributeName="transform" type="rotate" dur="38s" repeatCount="indefinite" calcMode="spline" keyTimes="0;0.5;1" values="-1.2 110 110;1.2 110 110;-1.2 110 110" keySplines="0.45 0 0.55 1;0.45 0 0.55 1"/>
<g filter="url(#dm-ink)">
<circle cx="110" cy="110" r="93.5" fill="none" stroke="#3D4D34" stroke-width="2.4" stroke-linecap="round" opacity="0.85"/>
<circle cx="110" cy="110" r="90" fill="none" stroke="#3D4D34" stroke-width="6.6" stroke-linecap="round"/>
<circle cx="110" cy="110" r="71" fill="none" stroke="#C0573B" stroke-width="2.1" stroke-linecap="round" stroke-dasharray="0.4 6.2"/>
<circle cx="110" cy="110" r="64.5" fill="none" stroke="#6B7A5C" stroke-width="0.9" stroke-linecap="round" opacity="0.75"/>
</g>
<g fill="#3D4D34" font-family="Fraunces, Georgia, serif" font-weight="600" letter-spacing="2.05" style="font-variation-settings:'opsz' 36,'SOFT' 60;">
<text font-size="9.6"><textPath href="#dm-rim" startOffset="0%" textLength="505">THE AUGUST GATHERING&#160;&#160;&#183;&#160;&#160;LAMMAS&#160;&#160;&#183;&#160;&#160;FIRST HARVEST&#160;&#160;&#183;&#160;&#160;</textPath></text>
</g>
<g fill="#6B7A5C">
<circle cx="110" cy="41" r="1.5"/><circle cx="110" cy="179" r="1.5"/>
<circle cx="41" cy="110" r="1.5"/><circle cx="179" cy="110" r="1.5"/>
</g>
<g filter="url(#dm-ink)">
<path d="M 110,73 C 110,73 103,67.2 103,61.9 C 103,59.2 105.1,57.2 107.5,57.2 C 108.8,57.2 109.9,58.2 110.4,59.3 C 110.8,58.2 112,57.2 113.3,57.2 C 115.7,57.2 117.8,59.2 117.8,61.9 C 117.8,67.2 110,73 110,73 Z" fill="#F2D4CE" stroke="#C0573B" stroke-width="2.6" stroke-linecap="round" stroke-linejoin="round"/>
</g>
<g font-family="Fraunces, Georgia, serif" fill="#3D4D34" text-anchor="middle">
<text x="110" y="128" font-size="58" font-weight="600" letter-spacing="1" style="font-variation-settings:'opsz' 144,'SOFT' 40;">02</text>
</g>
<line x1="87" y1="137.5" x2="133" y2="137.5" stroke="#C9B89F" stroke-width="1" stroke-linecap="round"/>
<text x="110" y="151" text-anchor="middle" font-family="Newsreader, Georgia, serif" font-style="italic" font-size="13.5" letter-spacing="1.2" fill="#6B5D4F">Aug 2026</text>
<g filter="url(#dm-ink)" fill="none" stroke="#3D4D34" stroke-width="2" stroke-linecap="round" stroke-linejoin="round" transform="translate(110,170)">
<path d="M -6.6,8 C -3.8,3.4 -2.3,-1.6 -1.9,-6.8"/>
<path d="M 6.6,8 C 3.8,3.4 2.3,-1.6 1.9,-6.8"/>
<path d="M -1.9,-6.8 C -2.3,-9 -1,-10.8 0,-11.4 C 1,-10.8 2.3,-9 1.9,-6.8"/>
<path d="M -6.1,4.8 L 6.1,4.8" stroke-width="1.6"/>
<path d="M -5.4,1.8 L 5.4,1.8" stroke-width="1.6"/>
<g stroke-width="1.6">
<path d="M -1.9,-6.8 C -2.9,-9.6 -4.4,-11 -6.1,-11.8 M -1.9,-6.8 C -1.3,-9.6 -0.8,-11.4 -0.5,-12.9"/>
<path d="M 1.9,-6.8 C 2.9,-9.6 4.4,-11 6.1,-11.8 M 1.9,-6.8 C 1.3,-9.6 0.8,-11.4 0.5,-12.9"/>
<path d="M -2.5,-4.8 C -4,-7.2 -5.7,-8.3 -7.6,-8.9 M 2.5,-4.8 C 4,-7.2 5.7,-8.3 7.6,-8.9"/>
</g>
</g>
</g>

</svg>